<svg xmlns="http://www.w3.org/2000/svg" width="139.31" height="76.822" viewBox="0 0 139.31 76.822">
  <g id="Hellodixie_main" transform="translate(73.138 38.411)">
    <g id="Group_2" data-name="Group 2" transform="translate(-73.138 -38.411)">
      <path id="Path_1" data-name="Path 1" d="M10.517,0q7.405,0,7.4,3.043a2.217,2.217,0,0,1-.378,1.344,5.023,5.023,0,0,1-1.448,1.155,2.5,2.5,0,0,0-1.176,1.487,17.558,17.558,0,0,0-.248,3.726q0,1.652.617,2.029a2.228,2.228,0,0,0,1.079.282q.723.048,3.406.048a10.245,10.245,0,0,0,3.039-.258q.593-.26.593-1.3a22.036,22.036,0,0,0-.286-4.34A2.374,2.374,0,0,0,22,5.543a5.092,5.092,0,0,1-1.377-1,1.7,1.7,0,0,1-.332-1.1,2.519,2.519,0,0,1,.735-1.757A3.742,3.742,0,0,1,22.954.613a27.3,27.3,0,0,1,6.2-.59,19.412,19.412,0,0,1,6.443.79q2.078.79,2.078,2.465A2.266,2.266,0,0,1,36.2,5.4a3.171,3.171,0,0,0-1.211.814,3.579,3.579,0,0,0-.451,1.449q-.095.591-.238,5.237t-.142,7.383a30.714,30.714,0,0,0,.356,6.085,2.216,2.216,0,0,0,.428.945,4.389,4.389,0,0,0,.652.452c2.341,1.431,2.213,3.59-.347,4.586l-.055.02a21.384,21.384,0,0,1-6.967.814,17.6,17.6,0,0,1-6.243-.824,2.491,2.491,0,0,1-1.828-2.336,2.315,2.315,0,0,1,1.4-2.1,2.629,2.629,0,0,0,.937-.754,4.771,4.771,0,0,0,.486-1.392,23.411,23.411,0,0,0,.428-4.858q0-1.486-.439-1.84a4.429,4.429,0,0,0-2.29-.353,18.623,18.623,0,0,0-5.412.471c-.316.127-.515.5-.593,1.11a22.679,22.679,0,0,0-.142,2.783,7.4,7.4,0,0,0,.759,3.867,4.236,4.236,0,0,0,1.235.967,1.978,1.978,0,0,1,1,1.864q0,1.652-2.3,2.525a19.356,19.356,0,0,1-6.575.872,20.986,20.986,0,0,1-6.361-.8,3.915,3.915,0,0,1-1.674-1A2.047,2.047,0,0,1,0,29.954a1.739,1.739,0,0,1,.38-1.2,6.338,6.338,0,0,1,1.662-1.086,2.017,2.017,0,0,0,.937-.85,5.329,5.329,0,0,0,.416-1.745,58.618,58.618,0,0,0,.356-7.216c0-.551-.007-1.2-.022-1.959q-.1-5.661-.1-6.462a6.175,6.175,0,0,0-.344-2.678A4.644,4.644,0,0,0,1.353,5.33,1.584,1.584,0,0,1,.31,3.845q0-2.38,4.651-3.3A28.307,28.307,0,0,1,10.517,0Z" transform="translate(0 0)" fill="#e0d7ca"/>
      <path id="Path_2" data-name="Path 2" d="M45.288,18.24,34.12,18.228a1.4,1.4,0,0,0-1.141.848,2.712,2.712,0,0,0,1.18,3.233,6.9,6.9,0,0,0,4.09,1.011,8.507,8.507,0,0,0,2.527-.435,8.285,8.285,0,0,0,2.291-1.074,2.5,2.5,0,0,1,1.283-.568,2.128,2.128,0,0,1,1.625.557,2.5,2.5,0,0,1,.593,1.556q0,1.7-2.136,3.278a14.2,14.2,0,0,1-8.711,2.809,12.424,12.424,0,0,1-8.357-2.878,11.789,11.789,0,0,1-2.705-3.42,11.913,11.913,0,0,1-1.383-6.266,11.691,11.691,0,0,1,2.356-6.406A12.723,12.723,0,0,1,31,6.329a13.442,13.442,0,0,1,5.246-1.014A11.821,11.821,0,0,1,43.91,7.862a10.252,10.252,0,0,1,2.565,3.019,7.86,7.86,0,0,1,1.115,3.867,4.519,4.519,0,0,1-.64,2.513A1.922,1.922,0,0,1,45.288,18.24ZM34.75,14.526h2.4q1.521,0,1.52-1.392a5.028,5.028,0,0,0-.737-2.771,2.481,2.481,0,0,0-1.922-.8,2.451,2.451,0,0,0-2.09,1.036,5.535,5.535,0,0,0-.711,2.654,1.214,1.214,0,0,0,.345.991A1.917,1.917,0,0,0,34.75,14.526Z" transform="translate(16.515 3.716)" fill="#e0d7ca"/>
      <path id="Path_3" data-name="Path 3" d="M87.956,39.336l-9.833,5.257a1.383,1.383,0,0,0-.6,1.285,2.73,2.73,0,0,0,2.582,2.29,6.9,6.9,0,0,0,4.084-1.04,8.433,8.433,0,0,0,2.016-1.577,8.2,8.2,0,0,0,1.5-2.025,2.49,2.49,0,0,1,.858-1.1,2.129,2.129,0,0,1,1.7-.277,2.514,2.514,0,0,1,1.265,1.091q.813,1.494-.313,3.891a14.088,14.088,0,0,1-6.325,6.581,12.439,12.439,0,0,1-8.73,1.41,12.133,12.133,0,0,1-8.227-6.6,11.676,11.676,0,0,1-.988-6.751A12.615,12.615,0,0,1,69.69,35.6a13.345,13.345,0,0,1,4.131-3.368,11.847,11.847,0,0,1,7.965-1.375,10.328,10.328,0,0,1,3.7,1.448,7.925,7.925,0,0,1,2.83,2.878,4.5,4.5,0,0,1,.636,2.513A1.9,1.9,0,0,1,87.956,39.336Zm-11.048,1.7,2.108-1.132a1.282,1.282,0,0,0,.672-1.942,5.067,5.067,0,0,0-1.972-2.092,2.5,2.5,0,0,0-2.076.2,2.431,2.431,0,0,0-1.342,1.9,5.512,5.512,0,0,0,.641,2.671,1.239,1.239,0,0,0,.776.71A1.932,1.932,0,0,0,76.908,41.041Z" transform="translate(47.44 21.432)" fill="#e0d7ca"/>
      <path id="Path_4" data-name="Path 4" d="M53.411,13.771v7.571a56.553,56.553,0,0,0,.154,5.85,1.788,1.788,0,0,0,1.176,1.273,3.554,3.554,0,0,1,1.175.707,1.374,1.374,0,0,1,.3.945,2.1,2.1,0,0,1-.557,1.415,3,3,0,0,1-1.484.9,16.465,16.465,0,0,1-5.11.554,20.786,20.786,0,0,1-6.433-.685,3.2,3.2,0,0,1-1.4-.955,2.08,2.08,0,0,1-.547-1.356,1.2,1.2,0,0,1,.3-.872,4.36,4.36,0,0,1,1.294-.732q.923-.4,1.139-2.194a75.914,75.914,0,0,0,.38-8.727,49.138,49.138,0,0,0-.333-7.406c-.221-1.1-.53-2.149-1.66-2.452a2.447,2.447,0,0,1-1.365-1.074,2.041,2.041,0,0,1-.368-1.237,2.5,2.5,0,0,1,1.115-2.017,11.336,11.336,0,0,1,3.56-1.592A36.34,36.34,0,0,1,48.989.741a25.33,25.33,0,0,1,3.8-.449C54.037.292,54,1.026,54,2.567q0,.754-.238,3.468Q53.459,10.256,53.411,13.771Z" transform="translate(28.446 0.204)" fill="#e0d7ca"/>
      <path id="Path_5" data-name="Path 5" d="M64.95,13.771v7.571a55.757,55.757,0,0,0,.156,5.85,1.782,1.782,0,0,0,1.175,1.273,3.554,3.554,0,0,1,1.175.707,1.374,1.374,0,0,1,.3.945,2.1,2.1,0,0,1-.559,1.415,3,3,0,0,1-1.483.9,16.486,16.486,0,0,1-5.111.554,20.794,20.794,0,0,1-6.433-.685,3.2,3.2,0,0,1-1.4-.955,2.078,2.078,0,0,1-.545-1.356,1.2,1.2,0,0,1,.3-.872,4.36,4.36,0,0,1,1.294-.732q.923-.4,1.139-2.194a75.914,75.914,0,0,0,.38-8.727A49.472,49.472,0,0,0,55,10.055c-.222-1.1-.532-2.149-1.662-2.452a2.453,2.453,0,0,1-1.365-1.074A2.041,2.041,0,0,1,51.6,5.292a2.5,2.5,0,0,1,1.115-2.017,11.336,11.336,0,0,1,3.56-1.592A36.341,36.341,0,0,1,60.528.741a25.331,25.331,0,0,1,3.8-.449c1.25,0,1.218.734,1.218,2.275q0,.754-.238,3.468Q65,10.256,64.95,13.771Z" transform="translate(36.639 0.204)" fill="#e0d7ca"/>
      <path id="Path_6" data-name="Path 6" d="M80.486,5.706a13.125,13.125,0,0,1,7.052,3.641,11.988,11.988,0,0,1,2.9,4.812,11.519,11.519,0,0,1,.371,5.789q-.98,5.023-6.3,7.651A16.67,16.67,0,0,1,73.716,29a13.06,13.06,0,0,1-8.4-4.887,10.442,10.442,0,0,1-1.8-8.611,11.413,11.413,0,0,1,5.845-8.147A15.815,15.815,0,0,1,80.486,5.706Zm-2.611,5.159a2.062,2.062,0,0,0-1.79.437,3.119,3.119,0,0,0-1.007,1.883,19.157,19.157,0,0,0-.215,3.888,28.937,28.937,0,0,0,.419,4.489,2.515,2.515,0,0,0,1.984,2.352q2.073.4,2.584-2.217a21.994,21.994,0,0,0,.339-4.523A18.5,18.5,0,0,0,79.7,12.9,2.5,2.5,0,0,0,77.874,10.864Z" transform="translate(44.918 3.746)" fill="#e0d7ca"/>
      <path id="Path_7" data-name="Path 7" d="M11.265,58.744H9.557c-1,0-4.65-.059-4.95-.059a4.123,4.123,0,0,1-2.515-.912,2.263,2.263,0,0,1-1-1.91,1.781,1.781,0,0,1,.439-1.286,3.166,3.166,0,0,1,1.436-.743,2.009,2.009,0,0,0,1.281-.766A5.679,5.679,0,0,0,4.774,51q.19-1.769.344-6.887t.154-10.166a7.292,7.292,0,0,0-.31-2.642,2.338,2.338,0,0,0-1.447-1.06,2.163,2.163,0,0,1-1.638-2.1A2,2,0,0,1,3,26.344a6.361,6.361,0,0,1,3.146-.649c.441,0,.964.008,1.566.025q1.993.069,2.9.07,3.394,0,7.666-.212.9-.046,2.256-.048a24.377,24.377,0,0,1,8.593,1.227,13.354,13.354,0,0,1,7.073,6.18,18.539,18.539,0,0,1,2.114,9.1,18.921,18.921,0,0,1-.785,5.344,16.327,16.327,0,0,1-2.112,4.633,14.514,14.514,0,0,1-7.6,5.566,25.714,25.714,0,0,1-8.96,1.145S12.72,58.744,11.265,58.744ZM16.334,32.7V50.956a2.873,2.873,0,0,0,.641,2.112,3,3,0,0,0,2.136.624,5.887,5.887,0,0,0,2.674-.649c2.722-1.451,3.516-4.863,3.875-6.412a16.426,16.426,0,0,0,.381-3.41,17.677,17.677,0,0,0-1.614-8.963,6.223,6.223,0,0,0-6.03-3.514,2.279,2.279,0,0,0-1.6.449A2.039,2.039,0,0,0,16.334,32.7Z" transform="translate(0.777 17.848)" fill="#e0d7ca"/>
      <path id="Path_8" data-name="Path 8" d="M38.38,36.221v13.7a7,7,0,0,0,.3,2.382,3.186,3.186,0,0,0,1.2,1.392,4.073,4.073,0,0,1,.985.884,1.628,1.628,0,0,1,.25.933q0,3.043-7.762,3.041a26.445,26.445,0,0,1-6.625-.659,2.7,2.7,0,0,1-1.341-.826,1.994,1.994,0,0,1-.51-1.344,1.639,1.639,0,0,1,.262-.991A7.086,7.086,0,0,1,26.463,53.6a3.027,3.027,0,0,0,1.045-1.77,16.131,16.131,0,0,0,.308-3.655q0-.777-.106-2.914t-.154-2.488a1.965,1.965,0,0,0-1.33-1.485A2.043,2.043,0,0,1,24.753,39.4q0-1.486,1.924-2.217a43.684,43.684,0,0,1,5.7-1.721,22.281,22.281,0,0,1,4.7-.707Q38.379,34.759,38.38,36.221Zm-4.7-10.331a6.069,6.069,0,0,1,3.275.766,2.346,2.346,0,0,1,1.212,2.064A3.22,3.22,0,0,1,36.338,31.6a13.774,13.774,0,0,1-7,1.675,5.023,5.023,0,0,1-2.755-.661A2.642,2.642,0,0,1,25.2,30.253q0-2.029,2.921-3.184A15.114,15.114,0,0,1,33.679,25.89Z" transform="translate(17.575 18.1)" fill="#e0d7ca"/>
      <path id="Path_9" data-name="Path 9" d="M45.312,40.981l-2.018-2.5a14.354,14.354,0,0,0-2.042-2.194,4.544,4.544,0,0,0-1.852-.8q-1.875-.4-1.874-1.793c0-.958.085-1.458,1.691-1.923a29.155,29.155,0,0,1,7.442-.695,34.654,34.654,0,0,1,5.942.318c1.313.314,1.235.977,1.235,1.922a4.073,4.073,0,0,1-.783,1.769.8.8,0,0,0-.142.494,6.046,6.046,0,0,0,.658,1.9c.392.7,1.171,1.76,1.424,1.76.286,0,.833-1.06,1.4-1.981.467-.76.831-1.222.831-1.568a3.766,3.766,0,0,0-.643-1.432,2.084,2.084,0,0,1-.451-1.036,1.611,1.611,0,0,1,.392-1.014,2.317,2.317,0,0,1,.985-.732,10.794,10.794,0,0,1,3.608-.425,7.653,7.653,0,0,1,3.063.425,1.905,1.905,0,0,1,1.185,1.747,1.184,1.184,0,0,1-.332.918,8.141,8.141,0,0,1-1.684.943,3.417,3.417,0,0,0-1.117.792q-.38.436-2.635,3.456L57.96,41.782a12.359,12.359,0,0,0-.841,1.191,1.759,1.759,0,0,0,.262.52L58.8,45.637a30.242,30.242,0,0,0,3.37,4.458,6.209,6.209,0,0,0,1.686,1.014,1.572,1.572,0,0,1,1.1,1.606c-.094,1.128-.186,1.614-1.419,1.855a101.292,101.292,0,0,1-12.145.411c-1.2-.17-1.8-2.219-1.412-3.255.246-.651.978-1.154.987-1.769a4.209,4.209,0,0,0-.157-1.1v0a5.36,5.36,0,0,0-.256-.715,7.506,7.506,0,0,0-.758-1.322c-.669-.967-1.163-1.684-1.476-1.531A7.411,7.411,0,0,0,46.053,47.9a5.637,5.637,0,0,0-1.007,2.557,1.977,1.977,0,0,0,.569,1.086,1.881,1.881,0,0,1,.5,1.274c0,1.368-1.623,2.229-4.867,2.229a10.174,10.174,0,0,1-3.822-.518,1.756,1.756,0,0,1-1.163-1.7,1.92,1.92,0,0,1,.368-1.274A2.857,2.857,0,0,1,38,51.028a2.561,2.561,0,0,0,1.59-.851q.546-.658,3.37-5.094l2.427-3.018a1.275,1.275,0,0,0,.238-.542A1.278,1.278,0,0,0,45.312,40.981Z" transform="translate(25.747 21.708)" fill="#e0d7ca"/>
      <path id="Path_10" data-name="Path 10" d="M69.374,36.221v13.7a6.986,6.986,0,0,0,.3,2.382,3.186,3.186,0,0,0,1.2,1.392,4.107,4.107,0,0,1,.985.884,1.628,1.628,0,0,1,.25.933q0,3.043-7.762,3.041a26.436,26.436,0,0,1-6.625-.659,2.7,2.7,0,0,1-1.341-.826,1.994,1.994,0,0,1-.51-1.344,1.639,1.639,0,0,1,.26-.991,7.178,7.178,0,0,1,1.33-1.132,3.027,3.027,0,0,0,1.045-1.77,16.131,16.131,0,0,0,.308-3.655q0-.777-.106-2.914t-.156-2.488a1.962,1.962,0,0,0-1.329-1.485A2.043,2.043,0,0,1,55.749,39.4q0-1.486,1.924-2.217a43.657,43.657,0,0,1,5.7-1.721,22.309,22.309,0,0,1,4.7-.707Q69.373,34.759,69.374,36.221Zm-4.7-10.331a6.071,6.071,0,0,1,3.276.766,2.344,2.344,0,0,1,1.211,2.064A3.217,3.217,0,0,1,67.333,31.6a13.767,13.767,0,0,1-7,1.675,5.023,5.023,0,0,1-2.755-.661A2.642,2.642,0,0,1,56.2,30.253q0-2.029,2.919-3.184A15.121,15.121,0,0,1,64.674,25.89Z" transform="translate(39.583 18.1)" fill="#e0d7ca"/>
    </g>
  </g>
</svg>
